<svg xmlns="http://www.w3.org/2000/svg" width="24" height="24" viewBox="0 0 24 24" fill="none">
    <defs>
        <linearGradient id="docGrad" x1="4" y1="2" x2="20" y2="22" gradientUnits="userSpaceOnUse">
            <stop offset="0%" stop-color="#3b82f6"/>
            <stop offset="100%" stop-color="#1d4ed8"/>
        </linearGradient>
        <linearGradient id="foldGrad" x1="14" y1="2" x2="20" y2="8" gradientUnits="userSpaceOnUse">
            <stop offset="0%" stop-color="#93c5fd"/>
            <stop offset="100%" stop-color="#60a5fa"/>
        </linearGradient>
    </defs>
    <!-- Document Body -->
    <path d="M14 2H6C4.89543 2 4 2.89543 4 4V20C4 21.1046 4.89543 22 6 22H18C19.1046 22 20 21.1046 20 20V8L14 2Z" fill="url(#docGrad)"/>
    <!-- Folded Corner -->
    <path d="M14 2V8H20L14 2Z" fill="url(#foldGrad)"/>
    <!-- Avatar Head -->
    <circle cx="9" cy="8.5" r="1.6" fill="#ffffff"/>
    <!-- Avatar Shoulders -->
    <path d="M6.2 12.2C6.2 10.8 7.4 9.8 9 9.8C10.6 9.8 11.8 10.8 11.8 12.2H6.2Z" fill="#ffffff"/>
    <!-- Candidate Info Lines -->
    <rect x="13.5" y="8" width="3.5" height="1.4" rx="0.7" fill="#ffffff" fill-opacity="0.9"/>
    <rect x="13.5" y="10.8" width="3.5" height="1.4" rx="0.7" fill="#ffffff" fill-opacity="0.9"/>
    <!-- Qualification & Project Lines -->
    <rect x="6.5" y="14.5" width="11" height="1.5" rx="0.75" fill="#ffffff" fill-opacity="0.9"/>
    <rect x="6.5" y="17.5" width="7.5" height="1.5" rx="0.75" fill="#ffffff" fill-opacity="0.9"/>
    <!-- Certification Seal / Badge at bottom right -->
    <circle cx="16.5" cy="18.5" r="2" fill="#fbbf24"/>
    <circle cx="16.5" cy="18.5" r="1.3" fill="#f59e0b"/>
</svg>
