<svg xmlns="http://www.w3.org/2000/svg" width="24" height="24" viewBox="0 0 24 24" fill="none">
    <path d="M14 2H6C4.89543 2 4 2.89543 4 4V20C4 21.1046 4.89543 22 6 22H18C19.1046 22 20 21.1046 20 20V8L14 2Z" stroke="#000000" stroke-width="2" stroke-linecap="round" stroke-linejoin="round"/>
    <path d="M14 2V8H20" stroke="#000000" stroke-width="2" stroke-linecap="round" stroke-linejoin="round"/>
    <circle cx="9" cy="8.5" r="1.5" fill="#000000"/>
    <path d="M6.5 12C6.5 10.9 7.6 10 9 10C10.4 10 11.5 10.9 11.5 12" stroke="#000000" stroke-width="1.5" stroke-linecap="round"/>
    <path d="M14 9H16.5" stroke="#000000" stroke-width="1.75" stroke-linecap="round"/>
    <path d="M14 11.5H16.5" stroke="#000000" stroke-width="1.75" stroke-linecap="round"/>
    <path d="M7.5 15H16.5" stroke="#000000" stroke-width="1.75" stroke-linecap="round"/>
    <path d="M7.5 18H13.5" stroke="#000000" stroke-width="1.75" stroke-linecap="round"/>
</svg>
